<svg width="24" height="24" viewBox="0 0 24 24" fill="none" xmlns="http://www.w3.org/2000/svg">
<path fill-rule="evenodd" clip-rule="evenodd" d="M10.1667 9.99999C10.1667 9.16081 10.7305 8.45332 11.5 8.23567V6.66666C11.5 6.39051 11.7239 6.16666 12 6.16666C12.2761 6.16666 12.5 6.39051 12.5 6.66666V8.23566C13.2695 8.4533 13.8334 9.1608 13.8334 9.99999C13.8334 10.8579 13.2441 11.5782 12.4482 11.7781C12.4814 11.845 12.5 11.9203 12.5 12L12.5 17.3333C12.5 17.6095 12.2761 17.8333 12 17.8333C11.7239 17.8333 11.5 17.6095 11.5 17.3333L11.5 12C11.5 11.9203 11.5186 11.845 11.5518 11.7781C10.7559 11.5781 10.1667 10.8579 10.1667 9.99999ZM16.2185 12.2218C16.1853 12.155 16.1667 12.0797 16.1667 12L16.1667 6.66667C16.1667 6.39052 16.3905 6.16667 16.6667 6.16667C16.9428 6.16667 17.1667 6.39052 17.1667 6.66667L17.1667 12C17.1667 12.0797 17.1481 12.155 17.1149 12.2219C17.9107 12.4218 18.5 13.1421 18.5 14C18.5 14.8579 17.9107 15.5781 17.1149 15.7781C17.148 15.845 17.1667 15.9203 17.1667 16L17.1667 17.3333C17.1667 17.6095 16.9428 17.8333 16.6667 17.8333C16.3905 17.8333 16.1667 17.6095 16.1667 17.3333L16.1667 16C16.1667 15.9203 16.1853 15.845 16.2185 15.7781C15.4226 15.5782 14.8333 14.8579 14.8333 14C14.8333 13.1421 15.4226 12.4218 16.2185 12.2218ZM7.83331 11.569L7.83331 6.66667C7.83331 6.39052 7.60945 6.16667 7.33331 6.16667C7.05717 6.16667 6.83331 6.39052 6.83331 6.66667L6.83331 11.569C6.06382 11.7867 5.5 12.4942 5.5 13.3333C5.5 14.1725 6.06382 14.88 6.83331 15.0977L6.83331 17.3333C6.83331 17.6095 7.05717 17.8333 7.33331 17.8333C7.60946 17.8333 7.83331 17.6095 7.83331 17.3333L7.83331 15.0977C8.60282 14.88 9.16667 14.1725 9.16667 13.3333C9.16667 12.4941 8.60283 11.7866 7.83331 11.569ZM7.33698 14.1667C7.79554 14.1647 8.16667 13.7924 8.16667 13.3333C8.16667 12.8731 7.79357 12.5 7.33333 12.5C6.8731 12.5 6.5 12.8731 6.5 13.3333C6.5 13.7923 6.87111 14.1647 7.32966 14.1667L7.33331 14.1666L7.33698 14.1667ZM12 9.16666C11.5398 9.16666 11.1667 9.53975 11.1667 9.99999C11.1667 10.4602 11.5398 10.8333 12 10.8333C12.4603 10.8333 12.8334 10.4602 12.8334 9.99999C12.8334 9.53975 12.4603 9.16666 12 9.16666ZM15.8333 14C15.8333 13.5398 16.2064 13.1667 16.6666 13.1667C17.1269 13.1667 17.5 13.5398 17.5 14C17.5 14.4602 17.1269 14.8333 16.6666 14.8333C16.2064 14.8333 15.8333 14.4602 15.8333 14Z" fill="#2B2B2B"/>
</svg>
