<svg width="32" height="32" viewBox="0 0 32 32" fill="none" xmlns="http://www.w3.org/2000/svg">
<circle cx="14.6666" cy="14.6667" r="9.33333" stroke="#686868" stroke-width="2"/>
<path fill-rule="evenodd" clip-rule="evenodd" d="M12.7533 10.0473C13.3599 9.79599 14.0101 9.66666 14.6667 9.66666C15.219 9.66666 15.6667 10.1144 15.6667 10.6667C15.6667 11.2189 15.219 11.6667 14.6667 11.6667C14.2727 11.6667 13.8826 11.7443 13.5186 11.895C13.1547 12.0458 12.8239 12.2668 12.5454 12.5453C12.2668 12.8239 12.0458 13.1546 11.895 13.5186C11.7443 13.8826 11.6667 14.2727 11.6667 14.6667C11.6667 15.2189 11.219 15.6667 10.6667 15.6667C10.1144 15.6667 9.66669 15.2189 9.66669 14.6667C9.66669 14.0101 9.79602 13.3599 10.0473 12.7532C10.2986 12.1466 10.6669 11.5954 11.1312 11.1311C11.5954 10.6668 12.1466 10.2985 12.7533 10.0473Z" fill="#686868"/>
<path fill-rule="evenodd" clip-rule="evenodd" d="M21.9596 21.9596C22.3501 21.569 22.9833 21.569 23.3738 21.9596L24.7071 23.2929C25.0977 23.6834 25.0977 24.3166 24.7071 24.7071C24.3166 25.0976 23.6834 25.0976 23.2929 24.7071L21.9596 23.3738C21.5691 22.9832 21.5691 22.3501 21.9596 21.9596Z" fill="#686868"/>
</svg>
