<svg width="36" height="41" viewBox="0 0 36 41" fill="none" xmlns="http://www.w3.org/2000/svg">
<circle cx="16.5" cy="16.5" r="10.5" fill="white" stroke="white" stroke-width="2"/>
<path fill-rule="evenodd" clip-rule="evenodd" d="M14.3952 11.4187C15.0625 11.1423 15.7777 11 16.5 11C17.0523 11 17.5 11.4477 17.5 12C17.5 12.5523 17.0523 13 16.5 13C16.0404 13 15.5852 13.0905 15.1606 13.2664C14.736 13.4423 14.3501 13.7001 14.0251 14.0251C13.7001 14.3501 13.4423 14.736 13.2664 15.1606C13.0905 15.5852 13 16.0404 13 16.5C13 17.0523 12.5523 17.5 12 17.5C11.4477 17.5 11 17.0523 11 16.5C11 15.7777 11.1423 15.0625 11.4187 14.3952C11.6951 13.728 12.1002 13.1216 12.6109 12.6109C13.1216 12.1002 13.7279 11.6951 14.3952 11.4187Z" fill="#2B2B2B"/>
<path fill-rule="evenodd" clip-rule="evenodd" d="M24.7929 24.7929C25.1834 24.4024 25.8166 24.4024 26.2071 24.7929L27.7071 26.2929C28.0976 26.6834 28.0976 27.3166 27.7071 27.7071C27.3166 28.0976 26.6834 28.0976 26.2929 27.7071L24.7929 26.2071C24.4024 25.8166 24.4024 25.1834 24.7929 24.7929Z" fill="white"/>
<circle cx="18" cy="38.5" r="2.5" fill="white"/>
</svg>
