<svg width="28" height="28" viewBox="0 0 28 28" fill="none" xmlns="http://www.w3.org/2000/svg">
<g clip-path="url(#clip0_467_17680)">
<path d="M27.9852 14.2619C27.9852 13.1148 27.8899 12.2777 27.6838 11.4095H14.2789V16.5872H22.1473C21.9887 17.8739 21.132 19.8117 19.2283 21.1138L19.2017 21.2871L23.44 24.4957L23.7337 24.5243C26.4305 22.0905 27.9852 18.5095 27.9852 14.2619" fill="#4285F4"/>
<path d="M14.2789 27.9038C18.1337 27.9038 21.3699 26.6636 23.7337 24.5244L19.2284 21.1138C18.0227 21.9354 16.4046 22.509 14.2789 22.509C10.5033 22.509 7.29885 20.0753 6.15655 16.7113L5.98911 16.7252L1.58197 20.0582L1.52434 20.2147C3.87216 24.7723 8.69477 27.9038 14.2789 27.9038Z" fill="#34A853"/>
<path d="M6.15655 16.7113C5.85514 15.8432 5.68071 14.913 5.68071 13.9519C5.68071 12.9907 5.85514 12.0607 6.14069 11.1925L6.13271 11.0077L1.67034 7.62115L1.52434 7.68902C0.556689 9.5803 0.00144958 11.7041 0.00144958 13.9519C0.00144958 16.1997 0.556689 18.3235 1.52434 20.2147L6.15655 16.7113" fill="#FBBC05"/>
<path d="M14.2789 5.3947C16.9598 5.3947 18.7683 6.52635 19.7995 7.47205L23.8289 3.6275C21.3542 1.37969 18.1337 0 14.2789 0C8.69477 0 3.87216 3.1314 1.52434 7.68899L6.14069 11.1925C7.29885 7.82857 10.5033 5.3947 14.2789 5.3947" fill="#EB4335"/>
</g>
<defs>
<clipPath id="clip0_467_17680">
<rect width="28" height="28" fill="white"/>
</clipPath>
</defs>
</svg>
