<svg width="24" height="24" viewBox="0 0 24 24" fill="none" xmlns="http://www.w3.org/2000/svg">
<path d="M8.16456 4.97506C10.0023 4.1781 12.0673 3.9758 14.0392 4.39953C16.0112 4.82326 17.7799 5.84934 19.0711 7.31864C20.3623 8.78794 21.1038 10.6183 21.1805 12.526C21.2573 14.4336 20.6651 16.3118 19.4957 17.8693C18.3263 19.4269 16.6452 20.5766 14.713 21.1404C12.7807 21.7041 10.7055 21.6502 8.80896 20.9872C6.91247 20.3241 5.30076 19.0889 4.2238 17.4731C3.14684 15.8573 2.66481 13.9512 2.85248 12.0504" stroke="#2B2B2B" stroke-width="2" stroke-linecap="round"/>
<path d="M11.9999 7.89993V14.0148C11.9999 14.0664 12.0159 14.1168 12.0457 14.159L14.6248 17.8107" stroke="#2B2B2B" stroke-width="2" stroke-linecap="round"/>
<path d="M5.46713 6.4368L6.01264 2.31742C6.04213 2.09474 6.32749 2.0209 6.46129 2.20132L10.2799 7.35055C10.4187 7.53774 10.2485 7.79631 10.0217 7.74278L5.65755 6.71294C5.53258 6.68345 5.45027 6.56409 5.46713 6.4368Z" fill="#2B2B2B"/>
</svg>
