<svg width="24" height="24" viewBox="0 0 24 24" fill="none" xmlns="http://www.w3.org/2000/svg">
<path d="M8.98194 6.47216C10.428 5.84503 12.053 5.68584 13.6047 6.01927C15.1564 6.3527 16.5482 7.16012 17.5642 8.3163C18.5802 9.47248 19.1637 10.9128 19.2241 12.4139C19.2845 13.915 18.8185 15.3929 17.8983 16.6186C16.9782 17.8442 15.6553 18.7489 14.1348 19.1925C12.6144 19.6361 10.9814 19.5937 9.48902 19.072C7.99668 18.5502 6.72844 17.5782 5.88099 16.3068C5.03353 15.0353 4.65423 13.5354 4.80191 12.0397" stroke="#2B2B2B" stroke-width="2" stroke-linecap="round"/>
<path d="M11.9999 8.77356V13.5684C11.9999 13.62 12.0159 13.6704 12.0457 13.7126L14.0655 16.5723" stroke="#2B2B2B" stroke-width="2" stroke-linecap="round"/>
<path d="M6.86569 7.57452L7.27136 4.51117C7.30084 4.2885 7.5862 4.21466 7.72 4.39508L10.5597 8.22426C10.6985 8.41146 10.5283 8.67002 10.3015 8.6165L7.05611 7.85066C6.93114 7.82117 6.84883 7.70181 6.86569 7.57452Z" fill="#2B2B2B" stroke="#2B2B2B" stroke-width="0.5" stroke-linejoin="round"/>
</svg>
