<svg width="33" height="33" viewBox="0 0 33 33" fill="none" xmlns="http://www.w3.org/2000/svg">
<path fill-rule="evenodd" clip-rule="evenodd" d="M11.7779 9.45352C13.0398 8.37193 13.9166 7.62276 14.6582 7.133C15.3763 6.65869 15.8639 6.5 16.3335 6.5C16.803 6.5 17.2906 6.65869 18.0088 7.133C18.7503 7.62276 19.6272 8.37193 20.889 9.45351L22.2224 10.5964C23.6663 11.8341 24.1393 12.2676 24.3923 12.8179C24.6454 13.3681 24.6668 14.0093 24.6668 15.9112V21.565C24.6668 22.8504 24.6647 23.7138 24.5781 24.3578C24.4954 24.9731 24.3524 25.2364 24.1787 25.4102C24.0049 25.584 23.7416 25.7269 23.1263 25.8096C22.5396 25.8885 21.7708 25.8973 20.6668 25.8982V19.8984C20.6668 18.7939 19.7714 17.8984 18.6668 17.8984L14.0001 17.8984C12.8956 17.8984 12.0001 18.7939 12.0001 19.8984L12.0001 25.8982C10.8962 25.8973 10.1274 25.8885 9.54067 25.8096C8.92538 25.7269 8.66205 25.584 8.4883 25.4102C8.31454 25.2364 8.17158 24.9731 8.08886 24.3578C8.00227 23.7138 8.00014 22.8504 8.00014 21.565L8.00014 15.9112C8.00014 14.0093 8.02153 13.3681 8.27461 12.8179C8.52768 12.2676 9.00061 11.8341 10.4446 10.5964L11.7779 9.45352ZM12.9872 27.8984C12.9915 27.8984 12.9958 27.8984 13.0001 27.8984C13.0045 27.8984 13.0088 27.8984 13.0131 27.8984L19.6539 27.8984C19.6582 27.8984 19.6625 27.8984 19.6668 27.8984C19.6711 27.8984 19.6754 27.8984 19.6798 27.8984H20.3335H20.4028C21.6008 27.8984 22.5997 27.8984 23.3928 27.7918C24.2298 27.6793 24.9856 27.4317 25.5929 26.8244C26.2002 26.2171 26.4477 25.4614 26.5603 24.6243C26.6669 23.8313 26.6669 22.8323 26.6668 21.6343V21.565V15.9112L26.6669 15.6998C26.6677 14.0954 26.6683 12.98 26.2094 11.9821C25.7504 10.9843 24.9031 10.2588 23.6845 9.21536L23.5239 9.07786L22.1906 7.935L22.1401 7.89174C20.9408 6.86373 19.9696 6.03118 19.111 5.46413C18.217 4.87369 17.3436 4.5 16.3335 4.5C15.3233 4.5 14.45 4.87369 13.556 5.46413C12.6974 6.03118 11.7261 6.86373 10.5268 7.89172L10.4764 7.935L9.14302 9.07786L8.98249 9.21536C7.76382 10.2588 6.91651 10.9843 6.45758 11.9821C5.99865 12.98 5.99923 14.0954 6.00007 15.6998L6.00014 15.9112V21.565L6.00014 21.6344C6.0001 22.8323 6.00007 23.8313 6.10669 24.6243C6.21923 25.4614 6.46679 26.2171 7.07409 26.8244C7.68138 27.4317 8.43711 27.6793 9.27417 27.7918C10.0672 27.8984 11.0662 27.8984 12.2642 27.8984H12.3335H12.9872ZM18.6668 25.8984L14.0001 25.8984V19.8984L18.6668 19.8984L18.6668 25.8984Z" fill="#686868"/>
</svg>
