<svg width="36" height="42" viewBox="0 0 36 42" fill="none" xmlns="http://www.w3.org/2000/svg">
<path fill-rule="evenodd" clip-rule="evenodd" d="M7.41169 14.7625C7 15.6576 7 16.6759 7 18.7126V25.0731C7 27.9016 7 29.3158 7.87868 30.1945C8.75736 31.0732 10.1716 31.0732 13 31.0732H13.3394C13.282 30.947 13.25 30.8068 13.25 30.6592V22.6592C13.25 21.5546 14.1454 20.6592 15.25 20.6592H20.75C21.8546 20.6592 22.75 21.5546 22.75 22.6592V30.6592C22.75 30.8066 22.7181 30.9467 22.6608 31.0727C25.0543 31.0674 26.3139 31.0019 27.1213 30.1945C28 29.3158 28 27.9016 28 25.0731V18.7126C28 16.6759 28 15.6576 27.5883 14.7625C27.1766 13.8674 26.4035 13.2047 24.8571 11.8793L23.3571 10.5935C20.5621 8.19785 19.1647 7 17.5 7C15.8353 7 14.4379 8.19785 11.6429 10.5935L10.1429 11.8793C8.59655 13.2047 7.82338 13.8674 7.41169 14.7625ZM20.8394 31.0732C20.782 30.947 20.75 30.8068 20.75 30.6592V22.6592H15.25V30.6592C15.25 30.8068 15.218 30.947 15.1606 31.0732H20.8394Z" fill="white"/>
<circle cx="18" cy="38.8984" r="2.5" fill="white"/>
</svg>
