<svg width="24" height="24" viewBox="0 0 24 24" fill="none" xmlns="http://www.w3.org/2000/svg">
<mask id="path-1-inside-1_11_658" fill="white">
<path d="M2 9.5V6.16667C2 4.32572 3.62806 2.83334 5.63636 2.83334H12V4.5H5.63636C4.63221 4.5 3.81818 5.24619 3.81818 6.16667V9.5H2Z"/>
<path d="M2 14.5V17.8333C2 19.6743 3.62806 21.1667 5.63636 21.1667H12V19.5H5.63636C4.63221 19.5 3.81818 18.7538 3.81818 17.8333V14.5H2Z"/>
</mask>
<path d="M2 9.5H0V11.5H2V9.5ZM12 2.83334H14V0.833336H12V2.83334ZM12 4.5V6.5H14V4.5H12ZM3.81818 9.5V11.5H5.81818V9.5H3.81818ZM2 14.5V12.5H0V14.5H2ZM12 21.1667V23.1667H14V21.1667H12ZM12 19.5H14V17.5H12V19.5ZM3.81818 14.5H5.81818V12.5H3.81818V14.5ZM0 6.16667V9.5H4V6.16667H0ZM5.63636 0.833336C2.69086 0.833336 0 3.0609 0 6.16667H4C4 5.59054 4.56525 4.83334 5.63636 4.83334V0.833336ZM12 0.833336H5.63636V4.83334H12V0.833336ZM14 4.5V2.83334H10V4.5H14ZM5.63636 6.5H12V2.5H5.63636V6.5ZM5.81818 6.16667C5.81818 6.31808 5.74722 6.42117 5.70216 6.46247C5.66001 6.5011 5.63152 6.5 5.63636 6.5V2.5C3.69501 2.5 1.81818 3.98137 1.81818 6.16667H5.81818ZM5.81818 9.5V6.16667H1.81818V9.5H5.81818ZM2 11.5H3.81818V7.5H2V11.5ZM0 14.5V17.8333H4V14.5H0ZM0 17.8333C0 20.9391 2.69086 23.1667 5.63636 23.1667V19.1667C4.56525 19.1667 4 18.4095 4 17.8333H0ZM5.63636 23.1667H12V19.1667H5.63636V23.1667ZM14 21.1667V19.5H10V21.1667H14ZM12 17.5H5.63636V21.5H12V17.5ZM5.63636 17.5C5.63152 17.5 5.66001 17.4989 5.70216 17.5375C5.74722 17.5788 5.81818 17.6819 5.81818 17.8333H1.81818C1.81818 20.0186 3.69501 21.5 5.63636 21.5V17.5ZM5.81818 17.8333V14.5H1.81818V17.8333H5.81818ZM3.81818 12.5H2V16.5H3.81818V12.5Z" fill="#2B2B2B" mask="url(#path-1-inside-1_11_658)"/>
<path d="M2.90924 12.0002L4.20794 10.3335M2.90924 12.0002L4.20794 13.6668M2.90924 12.0002H7.45469" stroke="#2B2B2B" stroke-width="0.9" stroke-linecap="round"/>
<path d="M13.3225 3.22394L19.1407 3.6342C20.1881 3.70805 21 4.57926 21 5.62924V18.3708C21 19.4207 20.1881 20.2919 19.1407 20.3658L13.3225 20.7761C12.1654 20.8576 11.1818 19.941 11.1818 18.781V5.21899C11.1818 4.05903 12.1654 3.14235 13.3225 3.22394Z" stroke="#2B2B2B" stroke-width="2"/>
<rect x="13.8184" y="8.6665" width="1" height="6.66667" rx="0.5" fill="#2B2B2B"/>
</svg>
