<svg width="36" height="42" viewBox="0 0 36 42" fill="none" xmlns="http://www.w3.org/2000/svg">
<path fill-rule="evenodd" clip-rule="evenodd" d="M11 8.5437C11 7.83624 10.2855 7.35248 9.62861 7.61522L5.12861 9.41523C4.74895 9.56709 4.5 9.9348 4.5 10.3437V29.1896C4.5 29.8971 5.21453 30.3809 5.87139 30.1181L10.3714 28.3181C10.751 28.1662 11 27.7985 11 27.3896V8.5437ZM13 27.1359C13 27.5948 13.3123 27.9947 13.7575 28.106L21.7575 30.106C22.3886 30.2638 23 29.7865 23 29.1359V10.1974C23 9.73858 22.6877 9.33859 22.2425 9.2273L14.2425 7.2273C13.6114 7.06952 13 7.54687 13 8.19744V27.1359ZM25.6286 9.01522C25.249 9.16709 25 9.5348 25 9.9437V28.7896C25 29.4971 25.7145 29.9809 26.3714 29.7181L30.8714 27.9181C31.251 27.7662 31.5 27.3985 31.5 26.9896V8.1437C31.5 7.43624 30.7855 6.95248 30.1286 7.21522L25.6286 9.01522Z" fill="white"/>
<circle cx="18" cy="39.1667" r="2.5" fill="white"/>
</svg>
