<svg width="32" height="33" viewBox="0 0 32 33" fill="none" xmlns="http://www.w3.org/2000/svg">
<path d="M11 23L11 7" stroke="#686868" stroke-width="2"/>
<path d="M28 22.6953V7.66466C28 7.34631 27.6785 7.12861 27.3829 7.24685L21.4684 9.61263C21.3806 9.64776 21.2839 9.65432 21.1922 9.63138L10.8078 7.03529C10.7161 7.01235 10.6194 7.01891 10.5316 7.05404L4.28287 9.55352C4.11203 9.62186 4 9.78732 4 9.97133L4 25.002C4 25.3204 4.32154 25.5381 4.61713 25.4198L10.5316 23.054C10.6194 23.0189 10.7161 23.0124 10.8078 23.0353L21.1922 25.6314C21.2839 25.6543 21.3806 25.6478 21.4684 25.6126L27.7171 23.1131C27.888 23.0448 28 22.8793 28 22.6953Z" stroke="#686868" stroke-width="2" stroke-linejoin="round"/>
<path d="M21 25V9" stroke="#686868" stroke-width="2"/>
</svg>
