<svg width="238" height="23" viewBox="0 0 238 23" fill="none" xmlns="http://www.w3.org/2000/svg">
<path d="M91.9746 0.0764621H86.7235C85.9456 0.0764621 85.3621 0.661162 85.3621 1.44077C85.3621 2.22038 85.9456 2.80509 86.7235 2.80509H88.0849V14.4992L76.9992 0.46626C76.6102 0.0764562 76.0268 -0.11844 75.4433 0.0764621C74.8598 0.271364 74.4709 0.856064 74.4709 1.44077V17.0329H73.1095C72.3315 17.0329 71.748 17.6177 71.748 18.3973C71.748 19.1769 72.3315 19.7616 73.1095 19.7616H78.3606C79.1385 19.7616 79.722 19.1769 79.722 18.3973C79.722 17.6177 79.1385 17.0329 78.3606 17.0329H76.9992V5.33881L88.0849 19.3718C88.2794 19.7616 88.6684 19.9565 89.2518 19.9565C89.4463 19.9565 89.6408 19.9565 89.6408 19.9565C90.2243 19.7616 90.6132 19.1769 90.6132 18.5922V2.99999H91.9746C92.7526 2.99999 93.3361 2.41529 93.3361 1.63568C93.3361 0.856076 92.7526 0.0764621 91.9746 0.0764621Z" fill="white"/>
<path d="M46.4652 0.0766602C41.0196 0.0766602 36.5464 4.55941 36.5464 10.0167C36.5464 15.4739 41.0196 19.9567 46.4652 19.9567C51.9108 19.9567 56.384 15.4739 56.384 10.0167C56.384 4.55941 51.9108 0.0766602 46.4652 0.0766602ZM53.6612 10.0167C53.6612 13.9147 50.5494 17.2281 46.4652 17.2281C42.381 17.2281 39.2692 14.1096 39.2692 10.0167C39.2692 6.11862 42.381 2.80529 46.4652 2.80529C50.5494 2.80529 53.6612 6.11862 53.6612 10.0167Z" fill="white"/>
<path d="M236.089 17.228H234.533L227.921 1.0511C227.726 0.466389 227.143 0.271484 226.559 0.271484C225.976 0.271484 225.587 0.661292 225.198 1.0511L218.78 17.228H217.029C216.251 17.228 215.668 17.8127 215.668 18.5923C215.668 18.9821 215.862 19.3719 216.057 19.5668C216.251 19.7617 216.64 19.9566 217.029 19.9566H222.281C223.058 19.9566 223.642 19.3719 223.642 18.5923C223.642 17.8127 223.058 17.228 222.281 17.228H221.697L224.031 11.5758H229.088L231.421 17.228H230.838C230.06 17.228 229.477 17.8127 229.477 18.5923C229.477 19.3719 230.06 19.9566 230.838 19.9566H235.895C236.673 19.9566 237.256 19.3719 237.256 18.5923C237.256 17.8127 236.867 17.228 236.089 17.228ZM228.115 8.65228H225.392L226.754 5.14404L228.115 8.65228Z" fill="white"/>
<path d="M197.192 9.04215C197.97 8.06764 198.359 6.89824 198.359 5.72882C198.359 2.61039 195.831 0.0766602 192.719 0.0766602H182.022C181.244 0.0766602 180.661 0.661361 180.661 1.44097C180.661 2.22058 181.244 2.80529 182.022 2.80529H183.383V18.3975C183.383 19.1771 183.967 19.7618 184.745 19.7618H195.247C198.359 19.7618 200.887 17.228 200.887 14.1096C200.693 11.9657 199.137 10.0167 197.192 9.04215ZM186.106 8.65236V3.00019H192.719C194.275 3.00019 195.636 4.36451 195.636 5.92372C195.636 7.48294 194.275 8.84725 192.719 8.84725H186.106V8.65236ZM186.106 17.2281V11.5759H195.247C196.803 11.5759 198.164 12.9402 198.164 14.4994C198.164 16.0586 196.803 17.423 195.247 17.423H186.106V17.2281Z" fill="white"/>
<path d="M157.711 8.65236H151.488C149.932 8.65236 148.57 7.28804 148.57 5.72882C148.57 4.16961 149.932 2.80529 151.488 2.80529H159.462C160.24 2.80529 160.823 2.22058 160.823 1.44097C160.823 0.661361 160.24 0.0766602 159.462 0.0766602H151.488C148.376 0.0766602 145.848 2.61039 145.848 5.72882C145.848 8.84726 148.376 11.381 151.488 11.381H157.711C159.267 11.381 160.629 12.7453 160.629 14.3045C160.629 15.8637 159.267 17.2281 157.711 17.2281H148.57V16.0586C148.57 15.279 147.987 14.6943 147.209 14.6943C146.431 14.6943 145.848 15.279 145.848 16.0586V21.321C145.848 22.1006 146.431 22.6853 147.209 22.6853C147.987 22.6853 148.57 22.1006 148.57 21.321V19.9567H157.711C160.823 19.9567 163.351 17.423 163.351 14.3045C163.351 11.1861 160.823 8.65236 157.711 8.65236Z" fill="white"/>
<path d="M127.955 17.228H126.399L119.787 1.0511C119.592 0.466389 119.009 0.271484 118.425 0.271484C117.647 0.466386 117.453 0.856194 117.258 1.0511L110.84 17.228H109.09C108.312 17.228 107.729 17.8127 107.729 18.5923C107.729 19.3719 108.312 19.9566 109.09 19.9566H114.341C115.119 19.9566 115.702 19.3719 115.702 18.5923C115.702 17.8127 115.119 17.228 114.341 17.228H113.758L116.091 11.5758H121.148L123.482 17.228H122.898C122.121 17.228 121.537 17.8127 121.537 18.5923C121.537 19.3719 122.121 19.9566 122.898 19.9566H127.955C128.733 19.9566 129.317 19.3719 129.317 18.5923C129.317 17.8127 128.733 17.228 127.955 17.228ZM119.981 8.65228H117.258L118.62 5.14404L119.981 8.65228Z" fill="white"/>
<path d="M18.8481 0.0764621C18.6537 0.0764621 18.0702 0.271358 17.8757 0.46626L11.4577 7.67765L5.0396 0.46626C4.65062 0.0764562 3.87268 -0.11844 3.28922 0.0764621C2.90024 0.466266 2.51127 1.05098 2.51127 1.63568V17.0329H2.1223C1.34435 17.0329 0.566406 17.6177 0.566406 18.5922C0.566406 19.3718 1.34435 20.1514 2.1223 20.1514H5.81754C6.59549 20.1514 7.37343 19.5667 7.37343 18.5922C7.37343 17.8126 6.59549 17.0329 5.81754 17.0329H5.42857V5.53373L10.2907 10.991C10.4852 11.1859 10.8742 11.3808 11.2632 11.3808C11.6521 11.3808 12.0411 11.1859 12.4301 10.991L19.8206 2.6102C20.2095 2.02549 20.2095 1.24588 19.8206 0.661174C19.6261 0.27137 19.2371 0.271364 18.8481 0.0764621Z" fill="white"/>
</svg>
