<svg width="32" height="32" viewBox="0 0 32 32" fill="none" xmlns="http://www.w3.org/2000/svg">
<path d="M6.66998 13.3271C6.66998 10.1452 6.66998 8.55418 7.6585 7.56566C8.64701 6.57715 10.238 6.57715 13.42 6.57715H17.92C21.102 6.57715 22.693 6.57715 23.6815 7.56566C24.67 8.55418 24.67 10.1452 24.67 13.3271V21.0082C24.67 24.0269 24.67 25.5363 23.7202 25.9979C22.7703 26.4596 21.5835 25.5271 19.2098 23.662L18.4502 23.0652C17.1155 22.0165 16.4482 21.4922 15.67 21.4922C14.8918 21.4922 14.2245 22.0165 12.8898 23.0652L12.1301 23.662C9.75647 25.5271 8.56964 26.4596 7.61981 25.9979C6.66998 25.5363 6.66998 24.0269 6.66998 21.0082V13.3271Z" stroke="#686868" stroke-width="2"/>
</svg>
