<svg width="36" height="41" viewBox="0 0 36 41" fill="none" xmlns="http://www.w3.org/2000/svg">
<path d="M7.50378 14.993C7.50378 11.4133 7.50378 9.62345 8.61586 8.51137C9.72794 7.39929 11.5178 7.39929 15.0975 7.39929H20.16C23.7398 7.39929 25.5296 7.39929 26.6417 8.51137C27.7538 9.62345 27.7538 11.4133 27.7538 14.993V23.6342C27.7538 27.0303 27.7538 28.7283 26.6852 29.2476C25.6167 29.767 24.2815 28.7179 21.6111 26.6198L20.7565 25.9483C19.255 24.7686 18.5043 24.1787 17.6288 24.1787C16.7533 24.1787 16.0026 24.7686 14.5011 25.9483L13.6464 26.6198C10.9761 28.7179 9.6409 29.767 8.57234 29.2476C7.50378 28.7283 7.50378 27.0303 7.50378 23.6342V14.993Z" fill="white" stroke="white" stroke-width="2"/>
<circle cx="18" cy="38.5" r="2.5" fill="white"/>
</svg>
