<svg width="24" height="24" viewBox="0 0 24 24" fill="none" xmlns="http://www.w3.org/2000/svg">
<path fill-rule="evenodd" clip-rule="evenodd" d="M12 3C12.3973 3 12.7569 3.23519 12.9162 3.59918L19.9162 19.5992C20.0714 19.954 20.0078 20.3665 19.7529 20.6581C19.498 20.9497 19.0977 21.0679 18.7253 20.9615L12 19.04L5.27474 20.9615C4.90235 21.0679 4.50201 20.9497 4.24712 20.6581C3.99223 20.3665 3.92863 19.954 4.08386 19.5992L11.0839 3.59918C11.2431 3.23519 11.6027 3 12 3ZM6.76747 18.455L11.7253 17.0385C11.9049 16.9872 12.0952 16.9872 12.2747 17.0385L17.2326 18.455L12 6.49489L6.76747 18.455Z" fill="#2B2B2B"/>
<path fill-rule="evenodd" clip-rule="evenodd" d="M11.4188 13.8137L7.91876 11.3137L9.08124 9.68627L12 11.7711L14.9188 9.68627L16.0812 11.3137L12.5812 13.8137C12.2335 14.0621 11.7665 14.0621 11.4188 13.8137Z" fill="#2B2B2B"/>
</svg>
