<svg width="24" height="24" viewBox="0 0 24 24" fill="none" xmlns="http://www.w3.org/2000/svg">
<path d="M6.17962 3.82038L6.79289 3.20711C7.18342 2.81658 7.81658 2.81658 8.20711 3.20711L10.7929 5.79289C11.1834 6.18342 11.1834 6.81658 10.7929 7.20711L9.00048 8.99952C8.7016 9.2984 8.6275 9.755 8.81653 10.1331C9.90929 12.3186 11.6814 14.0907 13.8669 15.1835C14.245 15.3725 14.7016 15.2984 15.0005 14.9995L16.7929 13.2071C17.1834 12.8166 17.8166 12.8166 18.2071 13.2071L20.7929 15.7929C21.1834 16.1834 21.1834 16.8166 20.7929 17.2071L20.1796 17.8204C18.0683 19.9317 14.7257 20.1693 12.337 18.3777L11.1286 17.4714C9.38504 16.1638 7.83622 14.615 6.52857 12.8714L5.62226 11.663C3.83072 9.2743 4.06827 5.93173 6.17962 3.82038Z" fill="#2B2B2B"/>
</svg>
