<svg width="24" height="24" viewBox="0 0 24 24" fill="none" xmlns="http://www.w3.org/2000/svg">
<path d="M16.8321 20.9998C13.1651 20.9951 9.64959 19.5333 7.05659 16.9351C4.46359 14.337 3.00475 10.8144 3 7.14004C3 6.04206 3.4353 4.98905 4.21014 4.21266C4.98498 3.43627 6.03589 3.0001 7.13168 3.0001C7.36371 2.99833 7.59537 3.01943 7.82328 3.0631C8.04362 3.09577 8.26022 3.15003 8.46998 3.2251C8.6175 3.27697 8.74896 3.36652 8.85136 3.4849C8.95375 3.60328 9.02353 3.7464 9.0538 3.90009L10.2843 9.30001C10.3175 9.44659 10.3135 9.59915 10.2727 9.74378C10.2319 9.88841 10.1556 10.0205 10.0508 10.128C9.93403 10.254 9.92505 10.263 8.82027 10.839C9.70499 12.7837 11.2572 14.3455 13.1945 15.2399C13.7783 14.1239 13.7873 14.1149 13.913 13.9979C14.0203 13.8929 14.1521 13.8165 14.2965 13.7756C14.4408 13.7347 14.5931 13.7307 14.7393 13.7639L20.1285 14.9969C20.277 15.0314 20.4142 15.1033 20.5274 15.2056C20.6405 15.3079 20.7258 15.4374 20.7752 15.5819C20.851 15.7955 20.9081 16.0154 20.9458 16.2389C20.982 16.4651 21 16.6938 20.9997 16.9229C20.9832 18.0162 20.5356 19.0585 19.7548 19.8223C18.974 20.5862 17.9233 21.0095 16.8321 20.9998Z" fill="#2B2B2B"/>
</svg>
