<svg width="24" height="24" viewBox="0 0 24 24" fill="none" xmlns="http://www.w3.org/2000/svg">
<path d="M16.8365 20.4998L16.8328 20.4998C13.2984 20.4953 9.90996 19.0864 7.41049 16.5819C4.91107 14.0775 3.50467 10.6819 3.5 7.13972C3.50008 6.17414 3.88294 5.24833 4.56405 4.56586C5.24519 3.88335 6.16882 3.5001 7.13168 3.50012L7.13549 3.50009C7.33468 3.49857 7.53354 3.51668 7.72919 3.55417L7.73953 3.55615L7.74995 3.55769C7.93786 3.58556 8.1226 3.63183 8.3015 3.69586L8.3015 3.69587L8.30414 3.6968C8.36943 3.71975 8.42772 3.75942 8.47319 3.81199C8.51867 3.86457 8.54974 3.92823 8.56323 3.9967L8.56466 4.00397L8.5663 4.01118L9.79665 9.41036C9.79668 9.41047 9.7967 9.41057 9.79672 9.41067C9.81142 9.47588 9.80962 9.54374 9.79148 9.60805C9.77331 9.67247 9.73936 9.7312 9.69282 9.77892L9.69271 9.77881L9.68406 9.78814C9.65731 9.817 9.65497 9.81876 9.65321 9.82009C9.65303 9.82022 9.65286 9.82035 9.65267 9.8205C9.64638 9.82552 9.62419 9.84214 9.5549 9.88239C9.41249 9.96511 9.14731 10.1046 8.58912 10.3956L8.16893 10.6147L8.36515 11.046C9.29941 13.0997 10.9387 14.7491 12.9849 15.6939L13.4169 15.8934L13.6375 15.4717C13.9324 14.908 14.0739 14.6398 14.1577 14.4957C14.1986 14.4254 14.2156 14.4026 14.221 14.3958C14.2212 14.3956 14.2213 14.3954 14.2215 14.3952C14.223 14.3932 14.2248 14.3908 14.2536 14.364L14.2537 14.3641L14.2628 14.3552C14.3104 14.3086 14.3688 14.2748 14.4327 14.2567C14.4964 14.2386 14.5636 14.2368 14.6282 14.2514C14.6283 14.2515 14.6285 14.2515 14.6286 14.2515L20.0153 15.4839C20.0155 15.484 20.0157 15.484 20.0159 15.4841C20.0813 15.4994 20.1419 15.5311 20.1919 15.5764C20.2421 15.6218 20.2801 15.6794 20.3021 15.7437L20.302 15.7437L20.304 15.7491C20.3699 15.9348 20.4195 16.1258 20.4525 16.3201C20.484 16.5181 20.4998 16.7183 20.4997 16.9188C20.4843 17.8791 20.0908 18.7942 19.4052 19.4649C18.7188 20.1364 17.7954 20.5083 16.8365 20.4998Z" stroke="#2B2B2B"/>
</svg>
