<svg width="24" height="24" viewBox="0 0 24 24" fill="none" xmlns="http://www.w3.org/2000/svg">
<path d="M8.96055 16L9.37788 15.7246L9.22967 15.5H8.96055V16ZM11.5999 20L11.1825 20.2754L11.5999 20.9079L12.0172 20.2754L11.5999 20ZM14.2392 16V15.5H13.9701L13.8218 15.7246L14.2392 16ZM2.5 7C2.5 5.61929 3.61929 4.5 5 4.5V3.5C3.067 3.5 1.5 5.067 1.5 7H2.5ZM2.5 13V7H1.5V13H2.5ZM5 15.5C3.61929 15.5 2.5 14.3807 2.5 13H1.5C1.5 14.933 3.067 16.5 5 16.5V15.5ZM8.96055 15.5H5V16.5H8.96055V15.5ZM12.0172 19.7246L9.37788 15.7246L8.54321 16.2754L11.1825 20.2754L12.0172 19.7246ZM13.8218 15.7246L11.1825 19.7246L12.0172 20.2754L14.6565 16.2754L13.8218 15.7246ZM19 15.5H14.2392V16.5H19V15.5ZM21.5 13C21.5 14.3807 20.3807 15.5 19 15.5V16.5C20.933 16.5 22.5 14.933 22.5 13H21.5ZM21.5 7V13H22.5V7H21.5ZM19 4.5C20.3807 4.5 21.5 5.61929 21.5 7H22.5C22.5 5.067 20.933 3.5 19 3.5V4.5ZM5 4.5H19V3.5H5V4.5Z" fill="#2B2B2B"/>
<path d="M6.91163 7.52724C7.20345 6.77592 7.34936 6.40027 7.60027 6.40027C7.85118 6.40027 7.99709 6.77592 8.28891 7.52724L8.3025 7.56222C8.46736 7.98668 8.5498 8.1989 8.7178 8.3279C8.8858 8.45689 9.10634 8.47729 9.54741 8.51808L9.62715 8.52546C10.349 8.59222 10.71 8.62561 10.7872 8.86276C10.8644 9.0999 10.5964 9.35175 10.0603 9.85544L9.88137 10.0236C9.60999 10.2785 9.4743 10.406 9.41105 10.5731C9.39925 10.6043 9.38945 10.6362 9.38169 10.6687C9.34012 10.8429 9.37986 11.0278 9.45933 11.3977L9.48406 11.5129C9.63011 12.1927 9.70313 12.5326 9.57563 12.6792C9.52799 12.734 9.46607 12.7734 9.39728 12.7928C9.21319 12.8447 8.95184 12.6247 8.42913 12.1849C8.08591 11.896 7.91429 11.7516 7.71726 11.7191C7.63976 11.7064 7.56078 11.7064 7.48328 11.7191C7.28625 11.7516 7.11463 11.896 6.7714 12.1849C6.2487 12.6247 5.98734 12.8447 5.80326 12.7928C5.73447 12.7734 5.67255 12.734 5.6249 12.6792C5.4974 12.5326 5.57043 12.1927 5.71647 11.5129L5.74121 11.3977C5.82068 11.0278 5.86042 10.8429 5.81884 10.6687C5.81109 10.6362 5.80128 10.6043 5.78948 10.5731C5.72624 10.406 5.59055 10.2785 5.31917 10.0236L5.14025 9.85544C4.60415 9.35175 4.3361 9.0999 4.41334 8.86276C4.49057 8.62561 4.85151 8.59222 5.57338 8.52546L5.65312 8.51808C6.0942 8.47729 6.31473 8.45689 6.48274 8.3279C6.65074 8.1989 6.73317 7.98668 6.89804 7.56222L6.91163 7.52724Z" fill="#2B2B2B"/>
<rect x="13.2001" y="8" width="6.4" height="0.8" rx="0.4" fill="#2B2B2B"/>
<rect x="13.2001" y="9.59973" width="6.4" height="0.8" rx="0.4" fill="#2B2B2B"/>
<rect x="16.4002" y="11.1994" width="3.2" height="0.8" rx="0.4" fill="#2B2B2B"/>
</svg>
