<svg width="24" height="24" viewBox="0 0 24 24" fill="none" xmlns="http://www.w3.org/2000/svg">
<path fill-rule="evenodd" clip-rule="evenodd" d="M5 4C3.34315 4 2 5.34315 2 7V13C2 14.6569 3.34315 16 5 16H8.96055L11.5999 20L14.2392 16H19C20.6569 16 22 14.6569 22 13V7C22 5.34315 20.6569 4 19 4H5ZM6.91175 7.52736C7.20357 6.77605 7.34948 6.40039 7.60039 6.40039C7.8513 6.40039 7.99721 6.77605 8.28903 7.52736L8.30262 7.56234C8.46749 7.9868 8.54992 8.19903 8.71792 8.32802C8.88592 8.45701 9.10646 8.47741 9.54754 8.51821L9.62728 8.52558C10.3492 8.59235 10.7101 8.62573 10.7873 8.86288C10.8646 9.10003 10.5965 9.35187 10.0604 9.85557L9.88149 10.0237L9.88149 10.0237C9.61011 10.2787 9.47442 10.4061 9.41117 10.5732C9.39938 10.6044 9.38957 10.6363 9.38181 10.6688C9.34024 10.843 9.37998 11.028 9.45945 11.3979L9.48418 11.513L9.48419 11.513L9.48419 11.513C9.63023 12.1928 9.70326 12.5327 9.57576 12.6793C9.52811 12.7341 9.46619 12.7735 9.3974 12.7929C9.21332 12.8448 8.95196 12.6249 8.42926 12.185C8.08603 11.8962 7.91441 11.7517 7.71738 11.7193C7.63988 11.7065 7.5609 11.7065 7.4834 11.7193C7.28637 11.7517 7.11475 11.8962 6.77152 12.185C6.24882 12.6249 5.98746 12.8448 5.80338 12.7929C5.73459 12.7735 5.67267 12.7341 5.62503 12.6793C5.49752 12.5327 5.57055 12.1928 5.7166 11.513L5.74133 11.3979C5.8208 11.028 5.86054 10.843 5.81897 10.6688C5.81121 10.6363 5.8014 10.6044 5.78961 10.5732C5.72636 10.4061 5.59067 10.2787 5.31929 10.0237L5.14037 9.85557C4.60427 9.35187 4.33623 9.10003 4.41346 8.86288C4.49069 8.62573 4.85163 8.59235 5.5735 8.52558L5.65324 8.51821C6.09432 8.47741 6.31486 8.45701 6.48286 8.32802C6.65086 8.19903 6.73329 7.9868 6.89816 7.56234L6.91175 7.52736ZM13.6002 8C13.3793 8 13.2002 8.17909 13.2002 8.4C13.2002 8.62091 13.3793 8.8 13.6002 8.8H19.2002C19.4211 8.8 19.6002 8.62091 19.6002 8.4C19.6002 8.17909 19.4211 8 19.2002 8H13.6002ZM13.2001 9.99972C13.2001 9.77881 13.3792 9.59972 13.6001 9.59972H19.2001C19.4211 9.59972 19.6001 9.77881 19.6001 9.99972C19.6001 10.2206 19.4211 10.3997 19.2001 10.3997H13.6001C13.3792 10.3997 13.2001 10.2206 13.2001 9.99972ZM16.8003 11.1994C16.5794 11.1994 16.4003 11.3785 16.4003 11.5994C16.4003 11.8204 16.5794 11.9994 16.8003 11.9994H19.2003C19.4212 11.9994 19.6003 11.8204 19.6003 11.5994C19.6003 11.3785 19.4212 11.1994 19.2003 11.1994H16.8003Z" fill="#2B2B2B"/>
</svg>
