<svg width="18" height="18" viewBox="0 0 18 18" fill="none" xmlns="http://www.w3.org/2000/svg">
<path fill-rule="evenodd" clip-rule="evenodd" d="M13.6402 5.2318C14.0644 5.58537 14.1218 6.21593 13.7682 6.64021L10.1702 10.9578C10.1579 10.9726 10.1456 10.9873 10.1333 11.0021C9.8377 11.357 9.55334 11.6983 9.28231 11.9448C8.9787 12.221 8.57282 12.4916 8.02341 12.5166C7.47399 12.5415 7.04528 12.3087 6.71791 12.0612C6.42567 11.8402 6.11158 11.526 5.78509 11.1994C5.7715 11.1858 5.75789 11.1722 5.74426 11.1585L4.29287 9.70713C3.90234 9.31661 3.90234 8.68344 4.29287 8.29292C4.68339 7.90239 5.31656 7.90239 5.70708 8.29292L7.15847 9.74431C7.54143 10.1273 7.7564 10.339 7.92419 10.4659C7.92637 10.4675 7.92851 10.4692 7.9306 10.4707C7.93255 10.469 7.93453 10.4672 7.93655 10.4653C8.09217 10.3238 8.28708 10.0934 8.6338 9.67739L12.2318 5.35984C12.5853 4.93556 13.2159 4.87824 13.6402 5.2318Z" fill="#2B2B2B"/>
</svg>
