<svg width="24" height="24" viewBox="0 0 24 24" fill="none" xmlns="http://www.w3.org/2000/svg">
<path d="M9.84799 5.52177C10.7599 3.17392 11.2159 2 12 2C12.7841 2 13.2401 3.17393 14.152 5.52178L14.1945 5.63111C14.7097 6.95752 14.9673 7.62073 15.4923 8.02384C16.0173 8.42695 16.7065 8.49069 18.0848 8.61817L18.334 8.64122C20.5899 8.84986 21.7178 8.95418 21.9592 9.69527C22.2005 10.4364 21.3629 11.2234 19.6876 12.7974L19.1284 13.3228C18.2804 14.1196 17.8563 14.518 17.6587 15.0401C17.6218 15.1375 17.5912 15.2373 17.567 15.3389C17.437 15.8832 17.5612 16.4612 17.8096 17.6171L17.8869 17.9769C18.3433 20.1013 18.5715 21.1635 18.173 21.6216C18.0241 21.7928 17.8306 21.9161 17.6157 21.9767C17.0404 22.1388 16.2237 21.4515 14.5902 20.0769C13.5176 19.1743 12.9813 18.723 12.3656 18.6215C12.1234 18.5815 11.8766 18.5815 11.6344 18.6215C11.0187 18.723 10.4824 19.1743 9.40979 20.0769C7.77633 21.4515 6.95961 22.1388 6.38434 21.9767C6.16938 21.9161 5.97587 21.7928 5.82698 21.6216C5.42854 21.1635 5.65674 20.1013 6.11315 17.9769L6.19045 17.6171C6.43879 16.4612 6.56296 15.8832 6.43305 15.3389C6.40881 15.2373 6.37817 15.1375 6.3413 15.0401C6.14366 14.518 5.71963 14.1196 4.87156 13.3228L4.31243 12.7974C2.63713 11.2234 1.79948 10.4364 2.04083 9.69527C2.28218 8.95418 3.41011 8.84986 5.66598 8.64122L5.91516 8.61817C7.29353 8.49069 7.98271 8.42695 8.50771 8.02384C9.03272 7.62073 9.29032 6.95752 9.80553 5.6311L9.84799 5.52177Z" fill="#FF9529"/>
</svg>
