<svg width="36" height="42" viewBox="0 0 36 42" fill="none" xmlns="http://www.w3.org/2000/svg">
<path fill-rule="evenodd" clip-rule="evenodd" d="M8.82222 29.8961C9.29498 29.0455 9.88469 28.2631 10.5756 27.5723C11.5507 26.5974 12.7082 25.8242 13.9821 25.2966C15.256 24.769 16.6214 24.4975 18.0003 24.4975C19.3791 24.4975 20.7445 24.769 22.0184 25.2966C23.2924 25.8242 24.4499 26.5974 25.4249 27.5723C26.1157 28.263 26.7054 29.0453 27.1781 29.8958C29.8364 27.4307 31.5 23.9083 31.5 19.9975C31.5 12.543 25.4558 6.5 18 6.5C10.5442 6.5 4.5 12.543 4.5 19.9975C4.5 23.9085 6.16375 27.431 8.82222 29.8961ZM22.5 16.9981C22.5 19.4829 20.4853 21.4973 18 21.4973C15.5147 21.4973 13.5 19.4829 13.5 16.9981C13.5 14.5133 15.5147 12.499 18 12.499C20.4853 12.499 22.5 14.5133 22.5 16.9981Z" fill="white"/>
<circle cx="18" cy="38.8961" r="2.5" fill="white"/>
</svg>
