<svg width="32" height="32" viewBox="0 0 32 32" fill="none" xmlns="http://www.w3.org/2000/svg">
<ellipse cx="16" cy="13.3333" rx="4" ry="4" stroke="#686868" stroke-width="2" stroke-linecap="round"/>
<path fill-rule="evenodd" clip-rule="evenodd" d="M5 16C5 9.92487 9.92487 5 16 5C22.0751 5 27 9.92487 27 16C27 19.236 25.6027 22.1456 23.3786 24.1584C22.8217 23.1537 22.0259 22.2691 21.0419 21.5745C19.5955 20.5534 17.8232 20 16 20C14.1768 20 12.4046 20.5534 10.9581 21.5744C9.9741 22.2691 9.17828 23.1537 8.62144 24.1584C6.39729 22.1456 5 19.236 5 16ZM16 3C8.8203 3 3 8.8203 3 16C3 23.1797 8.8203 29 16 29C23.1797 29 29 23.1797 29 16C29 8.8203 23.1797 3 16 3Z" fill="#686868"/>
</svg>
