<svg width="64" height="108" viewBox="0 0 64 108" fill="none" xmlns="http://www.w3.org/2000/svg">
<path d="M40 32C40 36.4183 36.4183 40 32 40M40 32C40 27.5817 36.4183 24 32 24M40 32H24M32 40C27.5817 40 24 36.4183 24 32M32 40C33.6569 40 35 36.4183 35 32C35 27.5817 33.6569 24 32 24M32 40C30.3431 40 29 36.4183 29 32C29 27.5817 30.3431 24 32 24M24 32C24 27.5817 27.5817 24 32 24M38.572 36.0745C37.8483 35.7486 36.8869 35.4813 35.7672 35.2945C34.6475 35.1078 33.4017 35.0069 32.1326 35.0003C30.8636 34.9938 29.6078 35.0816 28.4689 35.2567C27.33 35.4318 26.3408 35.689 25.5829 36.0072M38.572 27.9255C37.8483 28.2514 36.8869 28.5187 35.7672 28.7055C34.6475 28.8922 33.4017 28.9931 32.1326 28.9997C30.8636 29.0062 29.6078 28.9184 28.4689 28.7433C27.33 28.5682 26.3408 28.311 25.5829 27.9928" stroke="#2B2B2B"/>
<path d="M40 76C40 80.4183 36.4183 84 32 84C27.5817 84 24 80.4183 24 76C24 71.5817 27.5817 68 32 68C36.4183 68 40 71.5817 40 76Z" fill="#2B2B2B"/>
<path d="M35 76C35 80.4183 33.6569 84 32 84C30.3431 84 29 80.4183 29 76C29 71.5817 30.3431 68 32 68C33.6569 68 35 71.5817 35 76Z" fill="#2B2B2B"/>
<path d="M40 76C40 80.4183 36.4183 84 32 84M40 76C40 71.5817 36.4183 68 32 68M40 76H24M32 84C27.5817 84 24 80.4183 24 76M32 84C33.6569 84 35 80.4183 35 76C35 71.5817 33.6569 68 32 68M32 84C30.3431 84 29 80.4183 29 76C29 71.5817 30.3431 68 32 68M24 76C24 71.5817 27.5817 68 32 68M38.572 80.0745C37.8483 79.7486 36.8869 79.4813 35.7672 79.2945C34.6475 79.1078 33.4017 79.0069 32.1326 79.0003C30.8636 78.9938 29.6078 79.0816 28.4689 79.2567C27.33 79.4318 26.3408 79.689 25.5829 80.0072M38.572 71.9255C37.8483 72.2514 36.8869 72.5187 35.7672 72.7055C34.6475 72.8922 33.4017 72.9931 32.1326 72.9997C30.8636 73.0062 29.6078 72.9184 28.4689 72.7433C27.33 72.5682 26.3408 72.311 25.5829 71.9928" stroke="white"/>
<rect x="0.5" y="0.5" width="63" height="107" rx="4.5" stroke="#9747FF" stroke-dasharray="10 5"/>
</svg>
