<svg width="24" height="24" viewBox="0 0 24 24" fill="none" xmlns="http://www.w3.org/2000/svg">
<path d="M6.44782 7.96942C6.76217 5.14032 9.15347 3 12 3C14.8465 3 17.2378 5.14032 17.5521 7.96942L17.8039 10.2356C17.8072 10.2645 17.8088 10.279 17.8104 10.2933C17.9393 11.417 18.3051 12.5005 18.8835 13.4725C18.8909 13.4849 18.8984 13.4973 18.9133 13.5222L19.4914 14.4856C20.0159 15.3599 20.2782 15.797 20.2216 16.1559C20.1839 16.3946 20.061 16.6117 19.8756 16.7668C19.5971 17 19.0873 17 18.0678 17H5.93221C4.91267 17 4.40289 17 4.12432 16.7668C3.93896 16.6117 3.81607 16.3946 3.77839 16.1559C3.72177 15.797 3.98405 15.3599 4.5086 14.4856L5.08664 13.5222C5.10159 13.4973 5.10907 13.4849 5.11643 13.4725C5.69486 12.5005 6.06062 11.417 6.18957 10.2933C6.19121 10.279 6.19281 10.2645 6.19602 10.2356L6.44782 7.96942Z" fill="#222222"/>
<path d="M9 18C9 18.394 9.0776 18.7841 9.22836 19.1481C9.37913 19.512 9.6001 19.8427 9.87868 20.1213C10.1573 20.3999 10.488 20.6209 10.8519 20.7716C11.2159 20.9224 11.606 21 12 21C12.394 21 12.7841 20.9224 13.1481 20.7716C13.512 20.6209 13.8427 20.3999 14.1213 20.1213C14.3999 19.8427 14.6209 19.512 14.7716 19.1481C14.9224 18.7841 15 18.394 15 18L12 18H9Z" fill="#222222"/>
</svg>
