<svg width="28" height="28" viewBox="0 0 28 28" fill="none" xmlns="http://www.w3.org/2000/svg">
<path d="M6.44784 11.9694C6.76219 9.14032 9.15349 7 12 7V7C14.8465 7 17.2378 9.14032 17.5522 11.9694L17.804 14.2356C17.8072 14.2645 17.8088 14.279 17.8104 14.2933C17.9394 15.4169 18.3051 16.5005 18.8836 17.4725C18.8909 17.4849 18.8984 17.4973 18.9133 17.5222L19.4914 18.4856C20.0159 19.3599 20.2782 19.797 20.2216 20.1559C20.1839 20.3946 20.061 20.6117 19.8757 20.7668C19.5971 21 19.0873 21 18.0678 21H5.93223C4.91268 21 4.40291 21 4.12434 20.7668C3.93897 20.6117 3.81609 20.3946 3.77841 20.1559C3.72179 19.797 3.98407 19.3599 4.50862 18.4856L5.08665 17.5222C5.10161 17.4973 5.10909 17.4849 5.11644 17.4725C5.69488 16.5005 6.06064 15.4169 6.18959 14.2933C6.19123 14.279 6.19283 14.2645 6.19604 14.2356L6.44784 11.9694Z" fill="#2B2B2B"/>
<g clip-path="url(#clip0_11_887)">
<rect x="14" width="14" height="14" rx="7" fill="#B3261E"/>
<path d="M19.8926 6.0957H20.7363C21.0645 6.0957 21.3359 6.03906 21.5508 5.92578C21.7695 5.8125 21.9316 5.65625 22.0371 5.45703C22.1426 5.25781 22.1953 5.0293 22.1953 4.77148C22.1953 4.50195 22.1465 4.27148 22.0488 4.08008C21.9551 3.88477 21.8105 3.73438 21.6152 3.62891C21.4238 3.52344 21.1797 3.4707 20.8828 3.4707C20.6328 3.4707 20.4062 3.52148 20.2031 3.62305C20.0039 3.7207 19.8457 3.86133 19.7285 4.04492C19.6113 4.22461 19.5527 4.43945 19.5527 4.68945H18.1348C18.1348 4.23633 18.2539 3.83398 18.4922 3.48242C18.7305 3.13086 19.0547 2.85547 19.4648 2.65625C19.8789 2.45312 20.3438 2.35156 20.8594 2.35156C21.4102 2.35156 21.8906 2.44336 22.3008 2.62695C22.7148 2.80664 23.0371 3.07617 23.2676 3.43555C23.498 3.79492 23.6133 4.24023 23.6133 4.77148C23.6133 5.01367 23.5566 5.25977 23.4434 5.50977C23.3301 5.75977 23.1621 5.98828 22.9395 6.19531C22.7168 6.39844 22.4395 6.56445 22.1074 6.69336C21.7754 6.81836 21.3906 6.88086 20.9531 6.88086H19.8926V6.0957ZM19.8926 7.19727V6.42383H20.9531C21.4531 6.42383 21.8789 6.48242 22.2305 6.59961C22.5859 6.7168 22.875 6.87891 23.0977 7.08594C23.3203 7.28906 23.4824 7.52148 23.584 7.7832C23.6895 8.04492 23.7422 8.32227 23.7422 8.61523C23.7422 9.01367 23.6699 9.36914 23.5254 9.68164C23.3848 9.99023 23.1836 10.252 22.9219 10.4668C22.6602 10.6816 22.3535 10.8438 22.002 10.9531C21.6543 11.0625 21.2754 11.1172 20.8652 11.1172C20.498 11.1172 20.1465 11.0664 19.8105 10.9648C19.4746 10.8633 19.1738 10.7129 18.9082 10.5137C18.6426 10.3105 18.4316 10.0586 18.2754 9.75781C18.123 9.45312 18.0469 9.10156 18.0469 8.70312H19.459C19.459 8.95703 19.5176 9.18164 19.6348 9.37695C19.7559 9.56836 19.9238 9.71875 20.1387 9.82812C20.3574 9.9375 20.6074 9.99219 20.8887 9.99219C21.1855 9.99219 21.4414 9.93945 21.6562 9.83398C21.8711 9.72852 22.0352 9.57227 22.1484 9.36523C22.2656 9.1582 22.3242 8.9082 22.3242 8.61523C22.3242 8.2832 22.2598 8.01367 22.1309 7.80664C22.002 7.59961 21.8184 7.44727 21.5801 7.34961C21.3418 7.24805 21.0605 7.19727 20.7363 7.19727H19.8926Z" fill="white"/>
</g>
<path d="M9 22C9 22.394 9.0776 22.7841 9.22836 23.1481C9.37913 23.512 9.6001 23.8427 9.87868 24.1213C10.1573 24.3999 10.488 24.6209 10.8519 24.7716C11.2159 24.9224 11.606 25 12 25C12.394 25 12.7841 24.9224 13.1481 24.7716C13.512 24.6209 13.8427 24.3999 14.1213 24.1213C14.3999 23.8427 14.6209 23.512 14.7716 23.1481C14.9224 22.7841 15 22.394 15 22L12 22H9Z" fill="#2B2B2B"/>
<defs>
<clipPath id="clip0_11_887">
<rect x="14" width="14" height="14" rx="7" fill="white"/>
</clipPath>
</defs>
</svg>
