<svg width="58" height="62" viewBox="0 0 58 62" fill="none" xmlns="http://www.w3.org/2000/svg">
<path d="M49 23.8358C49 38.6851 33.039 54.1406 29.6341 57.2687C29.2671 57.6059 28.7329 57.6059 28.3659 57.2687C24.961 54.1406 9 38.6851 9 23.8358C9 12.8808 17.9543 4 29 4C40.0457 4 49 12.8808 49 23.8358Z" fill="#087E8B"/>
<path d="M39.3866 21.3569H36.0328V33.9127H39.3866V21.3569Z" fill="white"/>
<path d="M21.0318 21.3569H17.678V33.9127H21.0318V21.3569Z" fill="white"/>
<path d="M41.15 19.6737H16V21.3564H41.15V19.6737Z" fill="white"/>
<path fill-rule="evenodd" clip-rule="evenodd" d="M34.1178 21.3625H23.0275V33.9094H24.3794V27.6533C24.3794 26.9084 24.9827 26.303 25.7251 26.303H31.4211C32.1634 26.303 32.7637 26.9084 32.7637 27.6533V33.9094H34.1178V21.3625ZM26.009 33.9094H31.1372V27.9352H26.009V33.9094ZM29.834 24.1162C29.834 24.8128 29.2713 25.3774 28.5771 25.3774C27.8829 25.3774 27.3202 24.8128 27.3202 24.1162C27.3202 23.4197 27.8829 22.855 28.5771 22.855C29.2713 22.855 29.834 23.4197 29.834 24.1162Z" fill="white"/>
<path d="M28.5732 13.0175C29.0354 13.0175 29.4101 12.6415 29.4101 12.1777C29.4101 11.7139 29.0354 11.3379 28.5732 11.3379C28.1109 11.3379 27.7362 11.7139 27.7362 12.1777C27.7362 12.6415 28.1109 13.0175 28.5732 13.0175Z" fill="white"/>
<path d="M41.15 33.8766H16V35.5593H41.15V33.8766Z" fill="white"/>
<path d="M25.4372 17.9708H16L18.6144 14.2435H22.8228L25.4372 17.9708Z" fill="white"/>
<path d="M41.1498 17.9708H31.7126L34.327 14.2435H38.5354L41.1498 17.9708Z" fill="white"/>
<path d="M33.1643 17.9705H23.7272L27.8114 13.0205H29.3404L33.1643 17.9705Z" fill="white"/>
</svg>
