<svg width="58" height="63" viewBox="0 0 58 63" fill="none" xmlns="http://www.w3.org/2000/svg">
<path d="M49 24C49 38.9681 33.0479 54.547 29.6369 57.7071C29.269 58.0479 28.731 58.0479 28.3631 57.7071C24.9521 54.547 9 38.9681 9 24C9 12.9543 17.9543 4 29 4C40.0457 4 49 12.9543 49 24Z" fill="#087E8B"/>
<path d="M25.1765 14H22.8235V20.8571H21.3529V14C20.0534 14 19 15.0233 19 16.2857V20.8571C19 22.1195 20.0534 23.1429 21.3529 23.1429H22.8235V36.8571H25.1765V23.1429H26.6471C27.9466 23.1429 29 22.1195 29 20.8571V16.2857C29 15.0233 27.9466 14 26.6471 14V20.8571H25.1765V14Z" fill="white"/>
<path d="M39.006 19.7143V27.7143H35.5774V36.8571H33.2917V14C34.106 14 34.8774 14.1714 35.5774 14.4771C37.5974 15.3571 39.006 17.3714 39.006 19.7143Z" fill="white"/>
</svg>
