<svg width="58" height="63" viewBox="0 0 58 63" fill="none" xmlns="http://www.w3.org/2000/svg">
<path d="M49 24C49 38.9681 33.0479 54.547 29.6369 57.7071C29.269 58.0479 28.731 58.0479 28.3631 57.7071C24.9521 54.547 9 38.9681 9 24C9 12.9543 17.9543 4 29 4C40.0457 4 49 12.9543 49 24Z" fill="#087E8B"/>
<path d="M17.7617 37.1838H40.5683C40.9867 37.1838 41.33 36.759 41.33 36.2264C41.33 35.7005 40.9921 35.269 40.5683 35.269H17.7617C17.3379 35.269 17 35.7005 17 36.2264C17 36.7523 17.3379 37.1838 17.7617 37.1838Z" fill="white"/>
<path d="M36.47 15.2043C36.6637 15.2341 36.8139 15.4081 36.8139 15.6168V35.7824C36.8139 36.011 36.6347 36.1949 36.4119 36.1949H22.9331C22.7103 36.1949 22.5311 36.011 22.5311 35.7824V18.0965C22.5311 17.8679 22.7103 17.684 22.9331 17.684H23.0203L23.1075 17.6691L36.47 15.2043ZM36.4119 14.2055L22.9331 16.6901C22.1727 16.6901 21.5625 17.3213 21.5625 18.0965V35.7775C21.5625 36.5577 22.1776 37.1838 22.9331 37.1838H36.4119C37.1723 37.1838 37.7825 36.5527 37.7825 35.7775V15.6118C37.7825 14.8366 37.1674 14.2055 36.4119 14.2055Z" fill="white"/>
<path fill-rule="evenodd" clip-rule="evenodd" d="M20.5787 37.1836H33.6919C34.5536 37.1836 35.2452 36.5831 35.2452 35.8455V12.6759C35.2507 11.9335 34.5536 11.333 33.6973 11.333C32.8411 11.333 20.5787 17.0072 20.5787 17.0072C20.4723 17.0571 20.367 17.1042 20.2643 17.1502C19.5879 17.453 19.0253 17.7049 19.0253 18.3454V35.8407C19.0253 36.5831 19.7224 37.1836 20.5787 37.1836ZM23.4171 20.4567H30.8501C31.036 20.4567 31.1886 20.2853 31.1886 20.0765V19.3162C31.1886 19.1074 31.036 18.936 30.8501 18.936H23.4171C23.2312 18.936 23.0786 19.1074 23.0786 19.3162V20.0765C23.0834 20.2853 23.2312 20.4567 23.4171 20.4567ZM30.8501 24.2584H23.4171C23.2312 24.2584 23.0834 24.0924 23.0786 23.8783V23.118C23.0786 22.9091 23.2312 22.7378 23.4171 22.7378H30.8501C31.036 22.7378 31.1886 22.9091 31.1886 23.118V23.8783C31.1886 24.0871 31.036 24.2584 30.8501 24.2584ZM23.4171 31.8614H30.8501C31.036 31.8614 31.1886 31.6901 31.1886 31.4813V30.721C31.1886 30.5122 31.036 30.3408 30.8501 30.3408H23.4171C23.2312 30.3408 23.0786 30.5122 23.0786 30.721V31.4813C23.0786 31.6901 23.2312 31.8614 23.4171 31.8614ZM30.8501 28.0602H23.4171C23.2312 28.0602 23.0786 27.8889 23.0786 27.68V26.9197C23.0786 26.7109 23.2312 26.5396 23.4171 26.5396H30.8501C31.036 26.5396 31.1886 26.7109 31.1886 26.9197V27.68C31.1886 27.8889 31.036 28.0602 30.8501 28.0602Z" fill="white"/>
</svg>
