<svg width="24" height="24" viewBox="0 0 24 24" fill="none" xmlns="http://www.w3.org/2000/svg">
<path d="M20 12C20 16.4183 16.4183 20 12 20C7.58172 20 4 16.4183 4 12C4 7.58172 7.58172 4 12 4C16.4183 4 20 7.58172 20 12Z" fill="#2B2B2B"/>
<path d="M15 12C15 16.4183 13.6569 20 12 20C10.3431 20 9 16.4183 9 12C9 7.58172 10.3431 4 12 4C13.6569 4 15 7.58172 15 12Z" fill="#2B2B2B"/>
<path d="M20 12C20 16.4183 16.4183 20 12 20M20 12C20 7.58172 16.4183 4 12 4M20 12H4M12 20C7.58172 20 4 16.4183 4 12M12 20C13.6569 20 15 16.4183 15 12C15 7.58172 13.6569 4 12 4M12 20C10.3431 20 9 16.4183 9 12C9 7.58172 10.3431 4 12 4M4 12C4 7.58172 7.58172 4 12 4M18.572 16.0745C17.8483 15.7486 16.8869 15.4813 15.7672 15.2945C14.6475 15.1078 13.4017 15.0069 12.1326 15.0003C10.8636 14.9938 9.60778 15.0816 8.4689 15.2567C7.33002 15.4318 6.34077 15.689 5.58288 16.0072M18.572 7.92553C17.8483 8.25136 16.8869 8.5187 15.7672 8.70547C14.6475 8.89224 13.4017 8.99308 12.1326 8.99966C10.8636 9.00623 9.60778 8.91836 8.4689 8.74329C7.33002 8.56823 6.34077 8.31099 5.58288 7.99284" stroke="white"/>
</svg>
